<svg width="67" height="67" viewBox="0 0 67 67" fill="none" xmlns="http://www.w3.org/2000/svg">
<circle cx="33.5" cy="33.5" r="33.5" fill="#F5F7FA"/>
<path d="M30.0002 37.6641H38.0002V42.9974H30.0002V37.6641Z" fill="#F4900C"/>
<path d="M49.9998 27.0026C49.9998 36.3359 53.9998 32.3359 53.9998 36.3359C53.9998 36.3359 53.9998 39.0026 51.3331 39.0026H16.6664C13.9998 39.0026 13.9998 36.3359 13.9998 36.3359C13.9998 32.3359 17.9998 36.3359 17.9998 27.0026C17.9998 19.6386 26.6358 16.3359 33.9998 16.3359C41.3638 16.3359 49.9998 19.6386 49.9998 27.0026Z" fill="#FFAC33"/>
<path d="M34.0002 20.3281C36.2094 20.3281 38.0002 18.5373 38.0002 16.3281C38.0002 14.119 36.2094 12.3281 34.0002 12.3281C31.7911 12.3281 30.0002 14.119 30.0002 16.3281C30.0002 18.5373 31.7911 20.3281 34.0002 20.3281Z" fill="#FFAC33"/>
<path d="M56.6664 47.0104C56.6664 47.7177 56.3854 48.3959 55.8853 48.896C55.3852 49.3961 54.7069 49.6771 53.9997 49.6771H13.9997C13.2924 49.6771 12.6142 49.3961 12.1141 48.896C11.614 48.3959 11.333 47.7177 11.333 47.0104C11.333 46.3032 11.614 45.6249 12.1141 45.1248C12.6142 44.6247 13.2924 44.3438 13.9997 44.3438H53.9997C54.7069 44.3438 55.3852 44.6247 55.8853 45.1248C56.3854 45.6249 56.6664 46.3032 56.6664 47.0104Z" fill="#C1694F"/>
<path d="M53.9998 44.3385C53.9998 45.0458 53.7188 45.7241 53.2187 46.2242C52.7186 46.7243 52.0403 47.0052 51.3331 47.0052H16.6664C15.9592 47.0052 15.2809 46.7243 14.7808 46.2242C14.2807 45.7241 13.9998 45.0458 13.9998 44.3385C13.9998 43.6313 14.2807 42.953 14.7808 42.4529C15.2809 41.9528 15.9592 41.6719 16.6664 41.6719H51.3331C52.0403 41.6719 52.7186 41.9528 53.2187 42.4529C53.7188 42.953 53.9998 43.6313 53.9998 44.3385Z" fill="#C1694F"/>
</svg>
